<?xml version="1.0" encoding="UTF-8"?>
<svg version="1.1" xmlns="http://www.w3.org/2000/svg" width="652" height="267">
<path d="M0 0 C215.16 0 430.32 0 652 0 C652 88.11 652 176.22 652 267 C436.84 267 221.68 267 0 267 C0 178.89 0 90.78 0 0 Z " fill="#FEFEFE" transform="translate(0,0)"/>
<path d="M0 0 C5.01032187 0.41752682 8.31819036 1.64205542 11.625 5.5 C11.99625 6.098125 12.3675 6.69625 12.75 7.3125 C13.74 6.9825 14.73 6.6525 15.75 6.3125 C16.74 7.7975 16.74 7.7975 17.75 9.3125 C20.0850401 9.67724358 20.0850401 9.67724358 22.6875 9.5 C23.56277344 9.47292969 24.43804687 9.44585937 25.33984375 9.41796875 C26.53287109 9.36576172 26.53287109 9.36576172 27.75 9.3125 C30.75 9.3125 33.75 9.3125 36.75 9.3125 C35.54618552 11.80611571 34.29571278 13.99393083 32.75 16.3125 C34.07 16.3125 35.39 16.3125 36.75 16.3125 C38.07 14.0025 39.39 11.6925 40.75 9.3125 C42.73 9.3125 44.71 9.3125 46.75 9.3125 C46.52183594 10.07175781 46.29367188 10.83101562 46.05859375 11.61328125 C45.77113281 12.60714844 45.48367187 13.60101563 45.1875 14.625 C44.75244141 16.10419922 44.75244141 16.10419922 44.30859375 17.61328125 C43.49791709 20.39278339 43.49791709 20.39278339 44.75 23.3125 C46.7098036 24.16555478 46.7098036 24.16555478 49.125 24.6875 C54.13671897 26.04124018 58.63325063 27.97936984 63.3046875 30.2265625 C65.46400522 31.18549273 67.44487299 31.83003156 69.75 32.3125 C69.75 31.3225 69.75 30.3325 69.75 29.3125 C73.85215404 30.67988468 75.60847328 32.69827709 78.23046875 36.08203125 C81.44433519 42.91459564 80.80286325 50.8889891 80.75 58.3125 C77.45 58.3125 74.15 58.3125 70.75 58.3125 C70.45867187 57.67183594 70.16734375 57.03117187 69.8671875 56.37109375 C65.45802535 47.06748431 60.81044741 41.81720014 52.2578125 36.13671875 C49.77717625 34.3322684 47.83098214 32.4327702 45.75 30.1875 C42.22173854 26.47959183 38.59598123 24.40661402 33.94921875 22.3203125 C31.75 21.3125 31.75 21.3125 28.75 19.3125 C28.75 18.3225 28.75 17.3325 28.75 16.3125 C27.656875 16.168125 26.56375 16.02375 25.4375 15.875 C21.75 15.3125 21.75 15.3125 18.75 14.3125 C20.0651935 18.32693879 21.47170229 20.31353074 24.8125 22.875 C25.70066406 23.55691406 26.58882812 24.23882812 27.50390625 24.94140625 C31.37292924 27.79673292 35.3139602 30.55075309 39.25 33.3125 C60.04544181 47.92004096 60.04544181 47.92004096 62.75 55.3125 C62.42 56.3025 62.09 57.2925 61.75 58.3125 C58.45 58.3125 55.15 58.3125 51.75 58.3125 C51.28464844 57.14460938 50.81929687 55.97671875 50.33984375 54.7734375 C47.58167432 49.27644573 43.25412991 46.40158898 38.3125 42.9375 C36.50891029 41.62658311 34.70552509 40.3153848 32.90234375 39.00390625 C31.18509284 37.77316256 29.46765893 36.54267418 27.75 35.3125 C11.68324554 23.67256606 11.68324554 23.67256606 8.75 17.3125 C8.875 14.3125 8.875 14.3125 9.75 12.3125 C7.275 11.3225 7.275 11.3225 4.75 10.3125 C5.16312676 18.96938337 8.84560883 24.05394824 15.08691406 29.86523438 C19.4632563 33.67365434 24.19404148 37.0353937 28.87890625 40.44921875 C42.16435152 50.1732141 42.16435152 50.1732141 43.50390625 55.06640625 C43.58511719 55.80761719 43.66632813 56.54882812 43.75 57.3125 C40.04287828 57.59572662 36.44943201 57.7425383 32.75 57.3125 C31 55.25 31 55.25 29.75 52.3125 C24.14052713 45.6636248 16.90894458 40.14517996 9.95703125 34.98046875 C2.04096276 28.97444359 -2.88423986 19.81803926 -5.25 10.3125 C-5.61946713 7.43626852 -5.56825353 5.22982405 -5.25 2.3125 C-3.25 0.3125 -3.25 0.3125 0 0 Z " fill="#63BE6C" transform="translate(140.25,117.6875)"/>
<path d="M0 0 C4.29 0 8.58 0 13 0 C13.69453771 4.14416046 14.38855792 8.28840104 15.08129883 12.43286133 C15.31667842 13.84013768 15.55235019 15.2473652 15.78833008 16.65454102 C16.12920381 18.68753214 16.46899539 20.72070174 16.80859375 22.75390625 C17.11494751 24.58417358 17.11494751 24.58417358 17.42749023 26.45141602 C17.9939447 29.96246746 18.50811646 33.47779776 19 37 C20.63755671 32.54320647 21.48671657 28.3404863 22.0703125 23.6328125 C22.15626678 22.95322479 22.24222107 22.27363708 22.33078003 21.57345581 C22.60124156 19.42463969 22.86325291 17.27489319 23.125 15.125 C23.30803401 13.65878418 23.49162235 12.19263745 23.67578125 10.7265625 C24.12463678 7.1518932 24.56202518 3.57608564 25 0 C29.62 0 34.24 0 39 0 C39 20.13 39 40.26 39 61 C36.03 61 33.06 61 30 61 C29.505 42.685 29.505 42.685 29 24 C28.3503125 28.9809375 28.3503125 28.9809375 27.6875 34.0625 C26.47718574 43.13176124 24.9627474 52.06323523 23 61 C20.36 61 17.72 61 15 61 C14.3652967 57.68928781 13.74424786 54.37613482 13.125 51.0625 C12.95097656 50.15564453 12.77695312 49.24878906 12.59765625 48.31445312 C10.96849188 39.53506734 10.05162271 30.93879301 9 22 C8.67 34.87 8.34 47.74 8 61 C5.36 61 2.72 61 0 61 C0 40.87 0 20.74 0 0 Z " fill="#060606" transform="translate(407,113)"/>
<path d="M0 0 C20 0 20 0 26 4 C28.4680704 7.70210559 28.33179675 10.59112254 28.3125 14.875 C28.32861328 15.58269531 28.34472656 16.29039062 28.36132812 17.01953125 C28.36560842 21.61657278 27.55758844 24.23447401 25 28 C24.68479053 30.99997881 24.68479053 30.99997881 26.46801758 32.80761719 C28.46933301 35.67165107 28.42661156 37.60575169 28.51171875 41.078125 C28.56489258 42.81835938 28.56489258 42.81835938 28.61914062 44.59375 C28.64169922 45.8003125 28.66425781 47.006875 28.6875 48.25 C28.73874023 50.08304688 28.73874023 50.08304688 28.79101562 51.953125 C28.87347162 54.96865846 28.94263201 57.98390194 29 61 C26.03 61 23.06 61 20 61 C18.80237945 58.60475891 18.81330573 56.95496406 18.71875 54.28125 C18.68136719 53.34925781 18.64398438 52.41726562 18.60546875 51.45703125 C18.53515625 49.48567708 18.46484375 47.51432292 18.39453125 45.54296875 C18.35714844 44.61097656 18.31976563 43.67898437 18.28125 42.71875 C18.25095703 41.86216797 18.22066406 41.00558594 18.18945312 40.12304688 C18.12574655 37.9465398 18.12574655 37.9465398 17 36 C14.69 35.67 12.38 35.34 10 35 C10 43.58 10 52.16 10 61 C6.7 61 3.4 61 0 61 C0 40.87 0 20.74 0 0 Z " fill="#060606" transform="translate(488,113)"/>
<path d="M0 0 C4.29 0 8.58 0 13 0 C14.13422121 6.45048713 15.25719549 12.90282125 16.37060547 19.35693359 C16.80532765 21.87319597 17.24197242 24.38912668 17.68017578 26.90478516 C18.26349219 30.25475141 18.83931765 33.60594188 19.41079712 36.95794678 C19.74424072 38.90388941 20.08434282 40.84868731 20.42456055 42.79345703 C21.46776515 48.947914 22.28131631 54.75634072 22 61 C19.03 61 16.06 61 13 61 C11.62979003 56.88937009 11.93723363 53.33087938 12 49 C8.04 49 4.08 49 0 49 C-0.33 52.96 -0.66 56.92 -1 61 C-3.97 61 -6.94 61 -10 61 C-9.3680593 54.1674526 -8.52131407 47.41962201 -7.44140625 40.64453125 C-7.29219223 39.69865646 -7.14297821 38.75278168 -6.98924255 37.77824402 C-6.6755216 35.79569745 -6.36032356 33.81338409 -6.04370117 31.83129883 C-5.56224046 28.81087177 -5.08850401 25.78929814 -4.61523438 22.76757812 C-4.30775877 20.83065496 -3.99983159 18.89380341 -3.69140625 16.95703125 C-3.55174942 16.0620845 -3.41209259 15.16713776 -3.26820374 14.24507141 C-2.48154424 9.3668905 -1.46675057 4.71978951 0 0 Z " fill="#080808" transform="translate(461,113)"/>
<path d="M0 0 C0.66 0 1.32 0 2 0 C2.01417969 0.93199219 2.02835938 1.86398438 2.04296875 2.82421875 C2.57570264 17.06405166 6.48289758 27.21036599 16 38 C17.3701027 39.61158647 18.72520884 41.23608429 20.0625 42.875 C20.65160156 43.57367188 21.24070313 44.27234375 21.84765625 44.9921875 C23 47 23 47 22 51 C18.7 51 15.4 51 12 51 C11.814375 50.05125 11.62875 49.1025 11.4375 48.125 C10.4561047 44.63403671 8.8282306 42.16325513 6.6875 39.25 C0.79271678 31.14467307 -2.56005311 22.90769428 -4 13 C-4.96580282 23.70968017 -1.61201325 32.1275393 3.3125 41.5 C4.88593314 44.76341688 5.53600821 46.46234579 5 50 C4 51 4 51 1.71484375 51.09765625 C0.34005859 51.08025391 0.34005859 51.08025391 -1.0625 51.0625 C-1.98160156 51.05347656 -2.90070313 51.04445312 -3.84765625 51.03515625 C-4.55792969 51.02355469 -5.26820312 51.01195312 -6 51 C-6.13277344 50.01257813 -6.26554687 49.02515625 -6.40234375 48.0078125 C-6.57894531 46.72648437 -6.75554687 45.44515625 -6.9375 44.125 C-7.11152344 42.84882813 -7.28554687 41.57265625 -7.46484375 40.2578125 C-7.81433227 37.12440546 -7.81433227 37.12440546 -9 35 C-9.22950319 32.795636 -9.41075933 30.58607827 -9.5625 28.375 C-9.64628906 27.18648437 -9.73007813 25.99796875 -9.81640625 24.7734375 C-9.87699219 23.85820312 -9.93757813 22.94296875 -10 22 C-11.19952863 28.03697198 -11.29877153 34.05315175 -11.4296875 40.1875 C-11.56273264 43.70210917 -11.70018054 46.3656553 -13.21484375 49.5703125 C-15.63467695 51.50829708 -17.12548688 51.40906562 -20.1875 51.25 C-21.08855469 51.21390625 -21.98960938 51.1778125 -22.91796875 51.140625 C-23.60503906 51.09421875 -24.29210937 51.0478125 -25 51 C-24.72414063 50.33613281 -24.44828125 49.67226562 -24.1640625 48.98828125 C-22.77696529 45.42744445 -21.56948099 41.81608323 -20.375 38.1875 C-20.14554688 37.49462891 -19.91609375 36.80175781 -19.6796875 36.08789062 C-19.11841567 34.39238197 -18.55901687 32.69625347 -18 31 C-18.53109375 31.81984375 -19.0621875 32.6396875 -19.609375 33.484375 C-20.31578125 34.56203125 -21.0221875 35.6396875 -21.75 36.75 C-22.79414062 38.35101563 -22.79414062 38.35101563 -23.859375 39.984375 C-25.73853132 42.63165361 -27.62795543 44.7989136 -30 47 C-30.52325311 43.86048131 -30.65533214 41.12728354 -30 38 C-27.67995804 34.90152291 -24.98761843 32.44744635 -22 30 C-22.61359375 30.48082031 -23.2271875 30.96164063 -23.859375 31.45703125 C-25.98309064 32.98781168 -27.45457486 33.5454598 -30 34 C-27.31087086 29.15783821 -23.85684961 25.49159894 -20.05859375 21.5 C-18.01695064 19.02058522 -17.07142058 16.99499426 -16 14 C-14.09282824 11.39353193 -12.12873317 9.12505508 -9.8125 6.875 C-7.77113594 5.0333941 -7.77113594 5.0333941 -7 2 C-4.03 2.495 -4.03 2.495 -1 3 C-0.67 2.01 -0.34 1.02 0 0 Z " fill="#66BF6F" transform="translate(124,124)"/>
<path d="M0 0 C8.91 0 17.82 0 27 0 C27 2.97 27 5.94 27 9 C21.39 9 15.78 9 10 9 C10 14.28 10 19.56 10 25 C14.29 25 18.58 25 23 25 C23 27.97 23 30.94 23 34 C18.71 34 14.42 34 10 34 C10 39.94 10 45.88 10 52 C15.61 52 21.22 52 27 52 C27 54.97 27 57.94 27 61 C18.09 61 9.18 61 0 61 C0 40.87 0 20.74 0 0 Z " fill="#0A0A0A" transform="translate(265,113)"/>
<path d="M0 0 C8.58 0 17.16 0 26 0 C26 2.97 26 5.94 26 9 C20.72 9 15.44 9 10 9 C10 14.28 10 19.56 10 25 C14.29 25 18.58 25 23 25 C23 27.97 23 30.94 23 34 C18.71 34 14.42 34 10 34 C10 39.94 10 45.88 10 52 C15.28 52 20.56 52 26 52 C26 54.97 26 57.94 26 61 C17.42 61 8.84 61 0 61 C0 40.87 0 20.74 0 0 Z " fill="#060606" transform="translate(375,113)"/>
<path d="M0 0 C9.9 0 19.8 0 30 0 C30 2.97 30 5.94 30 9 C26.7 9 23.4 9 20 9 C20 26.16 20 43.32 20 61 C16.7 61 13.4 61 10 61 C10 43.84 10 26.68 10 9 C6.7 9 3.4 9 0 9 C0 6.03 0 3.06 0 0 Z " fill="#0A0A0A" transform="translate(520,113)"/>
<path d="M0 0 C9.9 0 19.8 0 30 0 C30 2.97 30 5.94 30 9 C26.7 9 23.4 9 20 9 C20 26.16 20 43.32 20 61 C16.7 61 13.4 61 10 61 C10 43.84 10 26.68 10 9 C6.7 9 3.4 9 0 9 C0 6.03 0 3.06 0 0 Z " fill="#0A0A0A" transform="translate(341,113)"/>
<path d="M0 0 C2.97 0 5.94 0 9 0 C9 17.16 9 34.32 9 52 C14.28 52 19.56 52 25 52 C25 54.97 25 57.94 25 61 C16.75 61 8.5 61 0 61 C0 40.87 0 20.74 0 0 Z " fill="#010101" transform="translate(297,113)"/>
<path d="M0 0 C2.97 0 5.94 0 9 0 C9 20.13 9 40.26 9 61 C6.03 61 3.06 61 0 61 C0 40.87 0 20.74 0 0 Z " fill="#010101" transform="translate(327,113)"/>
<path d="M0 0 C1.01721297 3.0516389 0.90615466 4.115756 0.5625 7.1875 C0.44431714 17.24781631 7.42456641 28.30334031 14.2265625 35.3515625 C16.72471741 37.673636 19.27480273 39.92439018 21.8671875 42.140625 C24.30475709 44.26568566 26.66620343 46.44881113 29 48.6875 C29.763125 49.41324219 30.52625 50.13898438 31.3125 50.88671875 C33 53 33 53 33 57 C29.7 57 26.4 57 23 57 C22.49082031 55.99066406 21.98164063 54.98132813 21.45703125 53.94140625 C18.90968855 49.48159704 15.43506153 46.3871962 11.6875 42.9375 C4.71338506 36.2695248 0.55538767 29.96374611 -3 21 C-3.37640625 20.15695313 -3.7528125 19.31390625 -4.140625 18.4453125 C-5.68879659 14.04006061 -5.70893296 9.59085711 -5 5 C-3.55170336 2.64336401 -2.27948765 1.65262854 0 0 Z " fill="#62BD6A" transform="translate(132,118)"/>
<path d="M0 0 C1.32 0 2.64 0 4 0 C4 31.02 4 62.04 4 94 C2.68 94 1.36 94 0 94 C0 62.98 0 31.96 0 0 Z " fill="#5EBC67" transform="translate(240,97)"/>
<path d="M0 0 C1.65 0 3.3 0 5 0 C4.88601335 1.62580966 4.75844341 3.25067157 4.625 4.875 C4.55539063 5.77992188 4.48578125 6.68484375 4.4140625 7.6171875 C4 10 4 10 2 12 C3.65 11.67 5.3 11.34 7 11 C7.33 9.35 7.66 7.7 8 6 C8.66 6 9.32 6 10 6 C13.58757062 9.58757062 13.58757062 9.58757062 15 12 C14.8125 14.875 14.8125 14.875 14 17 C6.88486245 17.53699151 1.55004254 15.69707634 -5 13 C-4.32116957 9.88452559 -3.25893098 7.14862279 -1.9375 4.25 C-1.57527344 3.45078125 -1.21304688 2.6515625 -0.83984375 1.828125 C-0.56269531 1.22484375 -0.28554687 0.6215625 0 0 Z " fill="#64BE6C" transform="translate(191,127)"/>
<path d="M0 0 C0.66 0 1.32 0 2 0 C2.50508972 3.89519106 3.00317733 7.79124657 3.5 11.6875 C3.64308594 12.79029297 3.78617187 13.89308594 3.93359375 15.02929688 C4.06894531 16.09599609 4.20429688 17.16269531 4.34375 18.26171875 C4.46943359 19.24100342 4.59511719 20.22028809 4.72460938 21.22924805 C4.98432795 23.84232089 5.05025329 26.37635968 5 29 C2.36 29 -0.28 29 -3 29 C-3.16356156 22.30079127 -2.57602131 16.0438831 -1.5 9.4375 C-1.35691406 8.52419922 -1.21382813 7.61089844 -1.06640625 6.66992188 C-0.71703202 4.44557264 -0.36148178 2.2224079 0 0 Z " fill="#DEDEDE" transform="translate(466,124)"/>
<path d="M0 0 C2.31 0 4.62 0 7 0 C9.69101234 2.69101234 9.29887549 4.19075946 9.3125 7.9375 C9.32925781 8.99839844 9.34601563 10.05929688 9.36328125 11.15234375 C9 14 9 14 7.85546875 15.87890625 C6 17 6 17 0 17 C0 11.39 0 5.78 0 0 Z " fill="#F7F7F7" transform="translate(498,122)"/>
<path d="M0 0 C0.66 0 1.32 0 2 0 C5.58757062 3.58757062 5.58757062 3.58757062 7 6 C6.8125 8.875 6.8125 8.875 6 11 C0.01006953 11.3152595 -3.63560356 10.68219822 -9 8 C-6.4345406 5.4345406 -4.52313332 5.45953913 -1 5 C-0.67 3.35 -0.34 1.7 0 0 Z " fill="#6BC173" transform="translate(199,133)"/>
<path d="M0 0 C2.08836672 4.17673343 2.3695619 6.65211418 2.625 11.25 C2.69976562 12.51328125 2.77453125 13.7765625 2.8515625 15.078125 C2.90054687 16.04234375 2.94953125 17.0065625 3 18 C2.34 18 1.68 18 1 18 C1 26.25 1 34.5 1 43 C0.67 43 0.34 43 0 43 C0 28.81 0 14.62 0 0 Z " fill="#DBDBDB" transform="translate(415,131)"/>
<path d="M0 0 C2.98047995 0.41588092 5.64509232 0.85439685 8.4375 2 C11.59272521 3.2313074 14.64735955 3.60557171 18 4 C15 6 15 6 12.375 5.875 C8.0009174 4.74097859 4.06806631 2.94363168 0 1 C0 0.67 0 0.34 0 0 Z " fill="#E5F4E7" transform="translate(186,140)"/>
<path d="M0 0 C3.375 -0.1875 3.375 -0.1875 7 0 C7.66 0.99 8.32 1.98 9 3 C8.01 4.485 8.01 4.485 7 6 C6.01 5.34 5.02 4.68 4 4 C4 3.01 4 2.02 4 1 C2.68 0.67 1.36 0.34 0 0 Z " fill="#82CB89" transform="translate(165,133)"/>
<path d="M0 0 C1.15957207 3.47871621 0.77456651 4.34219645 -0.4375 7.6875 C-0.72496094 8.49574219 -1.01242188 9.30398437 -1.30859375 10.13671875 C-1.53675781 10.75160156 -1.76492187 11.36648437 -2 12 C-2.99 11.34 -3.98 10.68 -5 10 C-3.66511872 6.40608886 -2.03977277 3.24509304 0 0 Z " fill="#DEF1DF" transform="translate(106,153)"/>
<path d="M0 0 C0 3 0 3 -1.3125 4.38671875 C-2.875 5.59114583 -4.4375 6.79557292 -6 8 C-6.66 7.34 -7.32 6.68 -8 6 C-7.05125 5.38125 -6.1025 4.7625 -5.125 4.125 C-2.05554891 2.18029031 -2.05554891 2.18029031 0 0 Z " fill="#CFEBD2" transform="translate(102,152)"/>
<path d="M0 0 C0.33 0.99 0.66 1.98 1 3 C0.01 4.485 0.01 4.485 -1 6 C-2.32 5.67 -3.64 5.34 -5 5 C-3.35 3.35 -1.7 1.7 0 0 Z " fill="#F1F9F2" transform="translate(178,129)"/>
</svg>
